Coordinates
version=1
nRows=13
nColumns=40
inDegrees=yes

Units are S.I. units (second, meters, Newtons, ...)
Angles are in degrees.

endheader
time	pelvis_tilt	pelvis_list	pelvis_rotation	pelvis_tx	pelvis_ty	pelvis_tz	hip_flexion_r	hip_adduction_r	hip_rotation_r	knee_angle_r	knee_angle_r_beta	ankle_angle_r	subtalar_angle_r	mtp_angle_r	hip_flexion_l	hip_adduction_l	hip_rotation_l	knee_angle_l	knee_angle_l_beta	ankle_angle_l	subtalar_angle_l	mtp_angle_l	lumbar_extension	lumbar_bending	lumbar_rotation	arm_flex_r	arm_add_r	arm_rot_r	elbow_flex_r	pro_sup_r	wrist_flex_r	wrist_dev_r	arm_flex_l	arm_add_l	arm_rot_l	elbow_flex_l	pro_sup_l	wrist_flex_l	wrist_dev_l
     24.62000000	     -1.11400002	     -3.69964958	     -2.84161131	      1.08483599	      0.92605463	      0.45839014	     17.78012289	     -0.74775968	     -7.63721001	     23.72468439	     23.72468439	      8.53236696	     -5.14467155	     -3.65454759	      2.81725983	     -8.33630608	    -10.03742628	     29.46412288	     29.46412288	     18.86603838	    -12.81092485	     -0.50017033	     -9.77120711	      5.75173393	      0.82931258	      4.61768595	    -15.65511961	     -8.38404583	     41.50288669	     45.23259262	      0.00000000	      0.00000000	      7.83305510	    -11.77038274	     -4.33189242	     44.25905189	     46.71373615	      0.00000000	      0.00000000
     24.63342857	     -1.09708613	     -3.88848786	     -2.57730731	      1.08496692	      0.92604998	      0.46146424	     17.36786035	     -0.40715317	     -7.92788448	     23.79888614	     23.79888614	      8.94641862	     -5.23755499	     -3.70131511	      4.30521269	     -9.11944627	     -9.29615789	     32.67363313	     32.67363313	     17.00323100	    -14.43388080	     -3.19162307	     -9.82317541	      6.03012827	      0.88285730	      4.58512238	    -16.10315711	     -7.75895691	     43.49314185	     45.16881493	      0.00000000	      0.00000000	      7.35996131	    -11.63650227	     -5.16195015	     43.06032750	     46.76196066	      0.00000000	      0.00000000
     24.64685714	     -1.05509883	     -4.10570069	     -2.27148054	      1.08502077	      0.92604737	      0.46453487	     16.87177352	     -0.04839522	     -8.33712138	     23.77927683	     23.77927683	      9.31668561	     -5.22090191	     -3.82317022	      6.08903767	     -9.98367115	     -8.53210024	     36.45331404	     36.45331404	     15.73261374	    -15.52649837	     -3.85617158	     -9.86808418	      6.28769218	      0.87069329	      5.11988948	    -16.29838894	     -7.77655516	     44.13044485	     45.15730404	      0.00000000	      0.00000000	      6.68208472	    -11.75979237	     -5.21539202	     42.46446656	     46.75059032	      0.00000000	      0.00000000
     24.66028571	     -0.96119726	     -4.34557117	     -1.94657724	      1.08494970	      0.92599988	      0.46754138	     16.33692503	      0.34932261	     -8.66704292	     23.78100669	     23.78100669	      9.70224759	     -5.26812225	     -3.91723058	      7.94046162	    -10.88623742	     -7.77121026	     40.29754671	     40.29754671	     13.69448395	    -16.71339259	     -5.59912491	    -10.02351014	      6.58073752	      1.05438041	      5.02907548	    -16.79892380	     -7.23258143	     46.27474153	     45.08694597	      0.00000000	      0.00000000	      6.34299235	    -11.70393521	     -5.54873655	     41.24427701	     46.75409193	      0.00000000	      0.00000000
     24.67371429	     -0.84169942	     -4.60038421	     -1.59540950	      1.08477587	      0.92593282	      0.47047542	     15.77212874	      0.75008038	     -9.06302473	     23.76182771	     23.76182771	     10.08496176	     -5.25188812	     -4.03858177	      9.96698902	    -11.78536571	     -6.95372314	     44.39373021	     44.39373021	     11.97253298	    -17.51177257	     -5.75628855	    -10.18070859	      6.82912455	      1.19621772	      5.56645134	    -17.06397969	     -7.28115509	     46.79844112	     45.07804212	      0.00000000	      0.00000000	      5.75851642	    -11.77877634	     -5.56471684	     40.76482651	     46.74290892	      0.00000000	      0.00000000
     24.68714286	     -0.79272859	     -4.83197885	     -1.21968216	      1.08447176	      0.92567859	      0.47332434	     15.31901200	      1.13599179	     -9.41601133	     23.77710085	     23.77710085	     10.45302918	     -5.34223236	     -4.13966620	     12.17573871	    -12.63936892	     -6.12067401	     48.48527681	     48.48527681	     10.08130166	    -18.09603101	     -5.59867148	    -10.23749053	      7.04006618	      1.21309799	      6.08806628	    -17.27175323	     -7.25199038	     47.67118878	     45.05267914	      0.00000000	      0.00000000	      5.14464604	    -11.90813028	     -5.60031967	     40.11325060	     46.73260201	      0.00000000	      0.00000000
     24.70057143	     -0.67097181	     -5.05063916	     -0.83346720	      1.08415290	      0.92552803	      0.47609090	     14.81040686	      1.51426796	     -9.72162376	     23.82031247	     23.82031247	     10.80679677	     -5.47924664	     -4.22092426	     14.31847964	    -13.43603728	     -5.30744386	     52.40187693	     52.40187693	      8.15106190	    -18.47268829	     -5.01754421	    -10.37300174	      7.20894519	      1.28965698	      6.61412535	    -17.50145607	     -7.17669979	     48.63708743	     45.02113232	      0.00000000	      0.00000000	      4.62465697	    -12.03405812	     -5.64918055	     39.47716495	     46.72579147	      0.00000000	      0.00000000
     24.71400000	     -0.65249174	     -5.11824402	     -0.43933915	      1.08354621	      0.92523305	      0.47855512	     14.48656704	      1.74753013	     -9.83237924	     23.93015781	     23.93015781	     11.18201453	     -5.91462972	     -4.14529705	     16.76181901	    -13.78425646	     -4.20001548	     56.44222521	     56.44222521	      7.78820015	    -18.52003306	      0.28434825	    -10.45781589	      7.24549958	      1.52884885	      5.91641003	    -18.32122876	     -5.84928277	     52.77920603	     44.84232228	      0.00000000	      0.00000000	      4.66822502	    -11.95803656	     -6.02705945	     37.53187656	     46.74553810	      0.00000000	      0.00000000
     24.72742857	     -0.53834666	     -5.29576760	     -0.01427460	      1.08303419	      0.92515284	      0.48101792	     13.96825906	      2.07010774	    -10.18223331	     23.88465775	     23.88465775	     11.52482860	     -5.98796680	     -4.21123187	     18.82582279	    -14.38166473	     -3.43915558	     59.68105247	     59.68105247	      5.89871182	    -18.78776046	      1.06395834	    -10.57169176	      7.31673169	      1.73854497	      6.48021272	    -18.54531136	     -5.88791698	     53.35659900	     44.83178277	      0.00000000	      0.00000000	      4.19068012	    -11.98676263	     -6.05449083	     37.09664554	     46.73807781	      0.00000000	      0.00000000
     24.74085714	     -0.41712675	     -5.40467583	      0.41148516	      1.08239918	      0.92517910	      0.48338292	     13.45783306	      2.34286777	    -10.41339895	     23.84154432	     23.84154432	     11.87180455	     -6.15539476	     -4.25521149	     20.76140976	    -14.82547846	     -2.75448268	     62.44537877	     62.44537877	      4.30040410	    -18.97374980	      2.08917434	    -10.72886182	      7.27751386	      1.88466537	      7.20408190	    -18.69984589	     -5.88604994	     54.16678240	     44.81046637	      0.00000000	      0.00000000	      3.79265336	    -12.18312618	     -6.10960097	     36.62848064	     46.73594324	      0.00000000	      0.00000000
     24.75428571	     -0.48347666	     -5.34046377	      0.87040981	      1.08154988	      0.92514933	      0.48527133	     13.18052361	      2.42150794	    -10.53844644	     23.80885253	     23.80885253	     12.18209181	     -6.59669017	     -4.07233348	     23.06125211	    -14.68372235	     -1.76018180	     65.19703310	     65.19703310	      5.38912530	    -18.82569736	      9.99281014	    -10.69771261	      7.13662061	      1.96567013	      6.68046320	    -19.38513327	     -4.65426980	     58.11731979	     44.66114652	      0.00000000	      0.00000000	      3.71087865	    -12.01452663	     -6.62352529	     34.81044863	     46.77577936	      0.00000000	      0.00000000
     24.76771429	     -0.44264465	     -5.34700313	      1.33485889	      1.08073864	      0.92541676	      0.48725427	     12.68962425	      2.56887657	    -10.85412235	     23.61040915	     23.61040915	     12.43507794	     -6.71012783	     -4.06564667	     24.76374878	    -14.87002702	     -1.29632486	     66.79849854	     66.79849854	      4.33980224	    -18.99342862	     10.43888763	    -10.77127478	      6.97423879	      2.11053469	      7.42620172	    -19.46063963	     -4.73402295	     58.76832496	     44.65021610	      0.00000000	      0.00000000	      3.30119077	    -12.09012757	     -6.66624453	     34.42482920	     46.77217235	      0.00000000	      0.00000000
     24.78114286	     -0.45373339	     -5.28291886	      1.81643970	      1.07981904	      0.92571983	      0.48895395	     12.23664607	      2.65675081	    -11.05392808	     23.34503448	     23.34503448	     12.66378722	     -6.97931451	     -3.96839991	     26.46414936	    -14.81292444	     -0.83216605	     67.99561859	     67.99561859	      4.48721329	    -19.02329504	     13.11535326	    -10.79535249	      6.76808269	      1.88976188	      7.72695737	    -19.58534514	     -4.24295049	     61.45612776	     44.57273897	      0.00000000	      0.00000000	      2.92568882	    -12.10815272	     -7.05643131	     33.22811298	     46.80177465	      0.00000000	      0.00000000
